# xmcd
#
# Track frame offsets:
#	150
#	11722
#	25402
#	34902
#	43595
#	56100
#	67372
#	80242
#	92577
#	104229
#	114822
#	135980
#	146587
#	158970
#	169520
#	181842
#	196482
#	207297
#	219722
#	230850
#
# Disc length: 3241
#
# Revision: 1
# Processed by: cddbd v1.5.1PL0 Copyright (c) Steve Scherf et al.
# Submitted via: VisiTrax 2.9.5.180 - For more info visit www.synapsa.com
# Normalized: r0:DSETVAR1
#
DISCID=2d0ca714
DTITLE=Various Artist - The top country collection
DYEAR=1995
DGENRE=
TTITLE0=Johnny Horton - The battle of New Orleans
TTITLE1=Johnny Cash - Don't take your guns to town
TTITLE2=Jim Reeves - Billy Bayou
TTITLE3=Webb Pierce - It ain't never
TTITLE4=George Jones - White lightening
TTITLE5=Stonewall Jackson - Waterloo
TTITLE6=Browns - The three bells
TTITLE7=Buck Owens - Under your spell again
TTITLE8=Faron Young - Country girl
TTITLE9=Wilma Lee and Stoney Cooper - There's a big wheel
TTITLE10=Marty Robbins - El Paso
TTITLE11=Ferlin Huskey - Wings of a dove
TTITLE12=Don Gibson - Just one time
TTITLE13=Jim Reeves - He'll have to go
TTITLE14=Jeanne Black - He'll have to stay
TTITLE15=Johnny Horton - Sink the bismarck
TTITLE16=Hank Locklin - Please help me, I'm falling
TTITLE17=Skeeter Davis - (I can't help you) I'm falling too
TTITLE18=Buck Owens - Excuse me (I think I've got a heartache)
TTITLE19=Ray Price - One more time
EXTD=
EXTT0=
EXTT1=
EXTT2=
EXTT3=
EXTT4=
EXTT5=
EXTT6=
EXTT7=
EXTT8=
EXTT9=
EXTT10=
EXTT11=
EXTT12=
EXTT13=
EXTT14=
EXTT15=
EXTT16=
EXTT17=
EXTT18=
EXTT19=
PLAYORDER=
